<svg width="24" height="21" viewBox="0 0 24 21" fill="none" xmlns="http://www.w3.org/2000/svg">
<path fill-rule="evenodd" clip-rule="evenodd" d="M9.23358 18.5641C9.23358 17.5679 8.41124 16.7682 7.38685 16.7682C6.36248 16.7682 5.54012 17.5679 5.54012 18.5641C5.54012 19.5603 6.36248 20.36 7.38685 20.36C8.41124 20.36 9.23358 19.5603 9.23358 18.5641ZM22.1607 18.5641C22.1607 17.5679 21.3383 16.7682 20.3139 16.7682C19.2895 16.7682 18.4672 17.5679 18.4672 18.5641C18.4672 19.5603 19.2895 20.36 20.3139 20.36C21.3383 20.36 22.1607 19.5603 22.1607 18.5641ZM24.0074 3.30052C24.0074 2.80935 23.589 2.40269 23.084 2.40269H5.75655C5.61231 1.72922 5.59781 0.606934 4.6168 0.606934H0.923317C0.418371 0.606934 0 1.01381 0 1.50463C0 1.99579 0.418371 2.40269 0.923317 2.40269H3.86656L6.42024 13.9487C6.21824 14.3552 5.54012 15.4357 5.54012 15.8705C5.54012 16.3617 5.95851 16.7682 6.46353 16.7682H21.2373C21.7423 16.7682 22.1607 16.3617 22.1607 15.8705C22.1607 15.3797 21.7423 14.9727 21.2373 14.9727H7.96399C8.10823 14.692 8.31026 14.3974 8.31026 14.075C8.31026 13.7521 8.18035 13.4017 8.12266 13.0927L23.185 11.3814C23.6611 11.3251 24.0074 10.9323 24.0074 10.4832V3.30052Z" fill="white"/>
</svg>
